<svg version="1.2" xmlns="http://www.w3.org/2000/svg" viewBox="0 0 98 44" width="98" height="44"><style>.a{fill:#e94560}</style><path class="a" d="m18.1 23h-15.3v-3.4l8-10.2h-3.9l-0.4 3.6h-3.6v-7.1h15.1v3.4l-8 10.2h4.1l0.4-3.6h3.6zm10.1 0.3q-2.6 0-4.5-1.1-2-1-3-3-1.1-2-1.1-4.7 0-2.8 1.1-4.8 1-2 3-3.1 1.9-1 4.5-1 2.7 0 4.6 1 2 1.1 3 3.1 1 2 1 4.8 0 2.7-1 4.7-1 2-3 3-1.9 1.1-4.6 1.1zm0-3.7q1.2 0 1.9-1.3 0.6-1.3 0.6-3.9 0-2.5-0.6-3.8-0.7-1.3-1.9-1.3-1.2 0-1.8 1.3-0.6 1.3-0.6 3.8 0 2.6 0.6 3.9 0.6 1.3 1.8 1.3zm18.7 3.4h-8.6v-3.7h1.7v-9.7h-1.7v-3.7h8.6v3.7h-1.4v3h4.5v-3h-1.5v-3.7h8.7v3.7h-1.7v9.7h1.7v3.7h-8.7v-3.7h1.5v-3.2h-4.5v3.2h1.4zm18.2 0h-7.1v-3.7h1.6l3.2-9.7h-2.3v-3.7h10.6l4 13.4h1.6v3.7h-9.7v-3.7h1.8l-0.5-1.9h-4.4l-0.6 1.9h1.8zm1.1-13.5l-1.5 5.2h2.9zm20 13.5h-8.7v-3.7h1.8v-9.7h-1.8v-3.7h9.9q3.2 0 4.9 1.2 1.7 1.2 1.7 3.5 0 1.5-0.7 2.5-0.7 1-2 1.4 1 0.3 1.5 1 0.5 0.7 0.5 1.8v0.9q0 0.5 0.3 0.8 0.2 0.3 0.8 0.3h1.1v3.7h-3.7q-2.1 0-3.1-0.9-0.9-1-1-2.8v-1.5q0-1.7-1.6-1.7h-1.4v3.2h1.5zm0.2-13.5h-1.7v3.6h1.7q2 0 2-1.8 0-1.8-2-1.8z"/><path class="a" d="m2.5 32.6v-1.8h4.4v1.8zm8.5 5.6q-0.9 0-1.6-0.4-0.7-0.4-1.1-1.1-0.4-0.7-0.4-1.6v-0.5l1.9-0.2v0.5q0 0.7 0.3 1.1 0.3 0.4 0.9 0.4 0.5 0 0.9-0.3 0.3-0.4 0.3-0.9 0-0.6-0.3-1.2-0.4-0.6-1.4-1.5-1.4-1.4-2-2.3-0.5-0.8-0.5-1.9 0-1.4 0.8-2.2 0.8-0.9 2.1-0.9 1.4 0 2.2 0.9 0.7 0.8 0.7 2.2v0.4l-1.8 0.2v-0.4q0-0.7-0.3-1.1-0.2-0.4-0.7-0.4-0.5 0-0.8 0.3-0.3 0.3-0.3 0.9 0 0.6 0.4 1.2 0.3 0.5 1.4 1.5 1.4 1.4 1.9 2.3 0.5 0.9 0.5 1.9 0 0.9-0.4 1.6-0.4 0.7-1.1 1.1-0.7 0.4-1.6 0.4zm10.2-0.2h-1.9v-12.6h1.9v5.3h2.3v-5.3h1.9v12.6h-1.9v-5.5h-2.3zm12.8 0.2q-1.4 0-2.2-0.8-0.9-0.9-0.9-2.3v-6.8q0-1.4 0.9-2.2 0.8-0.9 2.2-0.9 1.3 0 2.2 0.9 0.8 0.8 0.8 2.2v6.8q0 1.4-0.8 2.3-0.9 0.8-2.2 0.8zm0-1.8q0.5 0 0.8-0.3 0.3-0.4 0.3-1v-6.8q0-0.6-0.3-0.9-0.3-0.4-0.8-0.4-0.6 0-0.9 0.4-0.3 0.3-0.3 0.9v6.8q0 0.6 0.3 1 0.3 0.3 0.9 0.3zm8.6 1.6v-12.6h3q1.3 0 2.1 0.8 0.8 0.8 0.8 2.2v1.5q0 1.4-0.8 2.2-0.8 0.8-2.1 0.8h-1.1v5.1zm1.9-6.9h1q0.5 0 0.8-0.3 0.3-0.3 0.3-0.9v-1.5q0-0.6-0.3-0.9-0.3-0.3-0.8-0.3h-1zm9.3 6.9v-12.6h2.9q1.4 0 2.2 0.8 0.8 0.9 0.8 2.2v1.5q0 1.4-0.8 2.2-0.8 0.8-2.2 0.8h-1v5.1zm1.9-6.9h1q0.5 0 0.8-0.3 0.3-0.3 0.3-0.9v-1.5q0-0.6-0.3-0.9-0.3-0.3-0.8-0.3h-1zm9.2 6.9v-12.6h1.9v12.6zm7.6 0v-12.6h2.1l2.5 8.5v-8.5h1.8v12.6h-2l-2.5-8v8zm18.1-8.6h-1.9v-1.1q0-0.6-0.3-0.9-0.4-0.3-0.9-0.3-0.5 0-0.8 0.3-0.3 0.3-0.3 0.9v6.9q0 0.6 0.3 0.9 0.3 0.3 0.8 0.3 0.5 0 0.9-0.3 0.3-0.3 0.3-0.9v-2.3h-1.2v-1.8h3.1v4.1q0 1.3-0.9 2.2-0.8 0.8-2.2 0.8-1.4 0-2.2-0.8-0.9-0.9-0.9-2.2v-6.9q0-1.4 0.9-2.2 0.8-0.8 2.2-0.8 1.4 0 2.2 0.8 0.9 0.8 0.9 2.2zm1.3 3.3v-1.9h4.3v1.9z"/></svg>