<svg version="1.2" xmlns="http://www.w3.org/2000/svg" viewBox="0 0 98 44" width="98" height="44"><style>.a{fill:#e94560}</style><path class="a" d="m18.1 30h-15.3v-3.4l8-10.2h-3.9l-0.4 3.6h-3.6v-7.1h15.1v3.4l-8 10.2h4.1l0.4-3.6h3.6zm10.1 0.3q-2.6 0-4.5-1.1-2-1-3-3-1.1-2-1.1-4.7 0-2.8 1.1-4.8 1-2 3-3.1 1.9-1 4.5-1 2.7 0 4.6 1 2 1.1 3 3.1 1 2 1 4.8 0 2.7-1 4.7-1 2-3 3-1.9 1.1-4.6 1.1zm0-3.7q1.2 0 1.9-1.3 0.6-1.3 0.6-3.9 0-2.5-0.6-3.8-0.7-1.3-1.9-1.3-1.2 0-1.8 1.3-0.6 1.3-0.6 3.8 0 2.6 0.6 3.9 0.6 1.3 1.8 1.3zm18.7 3.4h-8.6v-3.7h1.7v-9.7h-1.7v-3.7h8.6v3.7h-1.4v3h4.5v-3h-1.5v-3.7h8.7v3.7h-1.7v9.7h1.7v3.7h-8.7v-3.7h1.5v-3.2h-4.5v3.2h1.4zm18.2 0h-7.1v-3.7h1.6l3.2-9.7h-2.3v-3.7h10.6l4 13.4h1.6v3.7h-9.7v-3.7h1.8l-0.5-1.9h-4.4l-0.6 1.9h1.8zm1.1-13.5l-1.5 5.2h2.9zm20 13.5h-8.7v-3.7h1.8v-9.7h-1.8v-3.7h9.9q3.2 0 4.9 1.2 1.7 1.2 1.7 3.5 0 1.5-0.7 2.5-0.7 1-2 1.4 1 0.3 1.5 1 0.5 0.7 0.5 1.8v0.9q0 0.5 0.3 0.8 0.2 0.3 0.8 0.3h1.1v3.7h-3.7q-2.1 0-3.1-0.9-0.9-1-1-2.8v-1.5q0-1.7-1.6-1.7h-1.4v3.2h1.5zm0.2-13.5h-1.7v3.6h1.7q2 0 2-1.8 0-1.8-2-1.8z"/></svg>